<svg width="2642" height="667" viewBox="0 0 2642 667" fill="none" xmlns="http://www.w3.org/2000/svg">
<path d="M1289.49 173.911C1287.36 183.029 1282.79 186.746 1275.35 188.325L1270.97 182.443L1250.25 169.759C1250.25 166.388 1250.91 163.935 1250.12 162.122C1248.57 158.619 1246.49 155.08 1247.75 151.385C1249.7 145.668 1251.77 139.741 1255.12 134.805C1260.13 127.436 1266.3 120.854 1271.61 114.387H1278.55C1284.5 119.551 1289.99 123.248 1294.03 128.136C1298.11 133.067 1300.75 139.182 1304.27 145.21C1295.72 154.567 1288.29 163.687 1289.49 173.911Z" fill="#D26200"/>
<path d="M1035.46 9.05155C1036.48 14.7174 1042.92 17.464 1043.27 24.1967C1043.44 27.3225 1045.03 29.8517 1042.98 33.2751C1040.73 37.0247 1039.69 41.4973 1038.13 45.6424C1037.59 45.1776 1036.97 44.6448 1036.36 44.1094C1032.11 47.4703 1031.44 48.2762 1028.46 55.9521L1005.8 61.7959C1000.75 58.3548 993.662 57.4864 987.863 53.5792C986.504 43.8376 975.238 37.2938 979.32 25.6482L985.85 18.9481C987.148 19.8341 988.506 20.6288 989.915 21.3264C996.226 23.9779 1001.39 20.8752 1005.88 17.218C1010.61 13.3733 1014.63 8.67102 1019.3 4H1028.57L1022.97 12.6761C1029.3 17.1052 1029.98 8.55414 1035.46 9.05155Z" fill="#D26200"/>
<path d="M1328.24 298.839H1332.44L1342.25 311.216C1342.88 317.971 1343.56 325.589 1337.34 331.664C1337.87 337.22 1333.65 341.721 1334.32 347.613C1334.8 351.889 1333.36 356.707 1331.6 360.776C1330.65 362.968 1327.23 364.091 1324.92 365.7L1302.99 350.795C1294.96 337.134 1299.7 326.777 1302.94 316.276C1307.11 302.821 1310.48 298.49 1323.38 290.93L1328.24 298.839Z" fill="#D26200"/>
<path d="M755.457 202.777C757.278 212.047 750.055 221.307 737.392 227.376L734.945 225.225L731.998 227.738L714.932 220.88L709.344 211.077C711.151 209.415 712.486 207.587 714.284 206.728C715.682 206.06 717.658 206.592 719.523 206.592C720.359 202.515 721.166 198.574 721.969 194.656C718.888 189.277 715.465 183.3 711.823 176.938L719.607 169.694H726.224C736.932 177.562 749.713 183.336 755.457 202.777Z" fill="#D26200"/>
<path d="M929.557 500.028L935.717 491.44L946.163 487.611C946.783 490.925 947.232 493.319 947.873 496.745L953.295 495.106C958.867 493.534 955.633 501.616 961.091 502.237C963.487 502.509 965.313 507.79 968.096 511.805C969.455 517.556 967.704 523.735 963.194 529.443L965.63 532.193L961.661 535.744C960.927 534.989 960.13 534.297 959.279 533.675C952.401 539.572 947.014 533.32 941.289 531.343C936.448 529.431 931.707 527.276 927.085 524.884C924.367 519.435 921.64 513.994 918.523 507.75C918.142 496.354 918.967 494.305 927.628 487.883C928.26 491.865 928.809 495.325 929.557 500.028Z" fill="#D26200"/>
<path d="M1130.95 474.007L1118.44 469.336V466.403L1100.69 460.695C1099.26 453.025 1097.99 446.243 1096.91 440.517C1101.35 435.239 1107.71 434.868 1109.39 428.33C1110.06 425.73 1115.19 424.277 1119.71 421.398L1122.49 428.183L1120.86 432.449L1122.8 433.635L1127.32 426.296C1132.04 432.594 1137.57 437.152 1139.03 442.768C1140.35 447.878 1143.78 452.825 1141.52 459.63C1139.25 466.434 1130.41 465.673 1130.95 474.007Z" fill="#D26200"/>
<path d="M837.764 330.357H824.387C821.426 334.517 826.536 341.157 815.757 343.641C806.346 343.283 795.837 338.205 789.047 326.462V315.818L797.958 306.908L800.99 309.279C804.775 304.71 809.824 307.513 813.183 306.887C823.766 312.19 833.776 316.846 837.764 330.357Z" fill="#D26200"/>
<path d="M761.357 549.218H766.949C767.422 550.631 767.932 552.149 768.739 554.559C773.884 553.86 780.834 554.123 783.097 558.482C785.867 563.834 792.93 563.439 794.259 571.35V592.812C785.561 598.373 779.989 587.024 772.349 588.85C766.899 585.397 764.727 579.289 759.417 575.75C757.783 574.463 756.498 572.788 755.677 570.876C754.857 568.965 754.529 566.878 754.722 564.807C754.965 561.789 754.768 558.734 754.768 555.806L761.357 549.218Z" fill="#D26200"/>
<path d="M654.756 406.922C656.87 399.039 645.977 395.778 649.834 387.849L660.528 377.133C667.018 380.384 674.567 383.481 681.37 387.763C688.356 392.16 690.759 400.198 694.7 407.206C693.427 410.49 692.254 413.509 690.929 416.93C677.853 419.661 667.139 413.266 654.756 406.922Z" fill="#D26200"/>
<path d="M1070.11 628.85C1065.08 622.213 1058.09 622.033 1051.39 619.856L1044.89 610.434V589.642L1053.16 583.45L1065.81 585.988C1077.04 591.696 1077.13 603.287 1082 613.25L1070.11 628.85Z" fill="#D26200"/>
<path d="M839.568 458.943L843.87 460.039V472.635L837.966 480.609L815.97 474.646C815.686 473.005 815.27 470.591 814.831 468.05L810.94 467.193C807.094 457.092 816.708 450.782 818.298 442.201C824.086 442.473 825.669 432.879 833.183 436.601L834.369 440.586L840.797 441.538L846.747 447.487L839.568 458.943Z" fill="#D26200"/>
<path d="M1195.55 309.999L1201.48 307.417C1206.92 316.659 1217.5 323.91 1215.75 337.995L1201.61 345.829L1191.43 340.629C1188.01 336.298 1184.91 332.38 1181.47 328.023C1180.47 321.994 1179.37 315.403 1178.21 308.481L1186.97 301.723H1194.38C1194.73 304.244 1195.08 306.67 1195.55 309.999Z" fill="#D26200"/>
<path d="M1228.76 523.77C1227.85 525.44 1226.94 527.109 1225.8 529.214C1229.88 531.341 1233.12 531.987 1236.32 527.147C1236.7 529.627 1237.29 530.931 1237 531.999C1236.27 534.702 1235.15 537.299 1234.06 540.31C1238.62 537.753 1238.98 537.386 1241.67 532.07C1243.84 537.976 1246.63 542.731 1247.1 547.699C1247.54 552.319 1245.49 557.177 1244.52 562.027C1242.96 561.348 1241.04 560.032 1240.61 560.407C1236.74 563.835 1232.88 563.326 1228.95 560.815C1225.03 558.303 1221.75 559.427 1219.14 563.495L1214.25 559.569C1214.94 556.743 1215.66 553.824 1216.41 550.735L1210.46 547.894C1211.62 542.673 1212.79 537.458 1214.21 531.086L1227.47 522.221L1228.76 523.77Z" fill="#D26200"/>
<path d="M1063.1 180.121C1059.2 177.783 1056.16 175.841 1053.01 174.103C1044.85 169.602 1044.87 169.626 1042.02 160.593C1041.35 158.272 1040.45 156.02 1039.36 153.868C1037.8 151.002 1035.65 148.452 1034.21 145.539C1033.11 142.871 1032.19 140.13 1031.46 137.335C1033.94 134.106 1036.57 130.922 1039.99 129.52C1057.43 140.089 1057.35 136.968 1068.43 166.98C1066.64 171.394 1064.84 175.84 1063.1 180.121Z" fill="#D26200"/>
<path d="M1172.95 42.9747L1178.41 43.5958C1186.13 53.4244 1191.89 63.7694 1189.25 75.9654L1177.79 77.5351L1169.52 68.5655C1164.98 66.7579 1161.19 66.4657 1159.92 64.521C1155.41 57.632 1154.44 49.7074 1155.78 40.8832L1166.68 34.4399L1172.95 42.9747Z" fill="#D26200"/>
<path d="M1165.84 167.116V174.377L1175.97 175.363V181.312C1188.6 185.786 1187.08 195.919 1186.88 206.085C1171.71 208.775 1162.48 199.552 1153.71 190.456L1149.89 174.773C1152.86 169.135 1158.07 166.854 1165.84 167.116Z" fill="#D26200"/>
<path d="M878.685 186.118L887.72 180.682C895.7 187.558 907.088 190.431 911.832 199.049C913.191 203.287 914.062 205.98 915.276 209.752L912.014 216.298L906.427 218.88L894.078 213.687C884.551 207.642 878.068 199.296 878.685 186.118Z" fill="#D26200"/>
<path d="M860.429 664.311L852.328 652.446L854.047 646.379L852.532 645.738L863.857 630.711C878.233 633.882 881.408 645.751 885.565 655.73L879.881 667L860.429 664.311Z" fill="#D26200"/>
<path d="M817.131 87.5304L824.742 80.0557C831.151 80.4267 837.037 79.6683 842.568 86.715C849.009 94.9249 851.973 95.6629 853.782 101.319C853.9 101.688 854.371 101.943 854.683 102.253C851.334 105.294 852.259 112.727 843.469 111.503C840.538 108.549 836.02 106.682 830.259 105.917C825.697 105.311 821.753 100.044 817.113 96.5286C818.472 94.596 819.407 93.2751 820.383 91.8888L817.131 87.5304Z" fill="#D26200"/>
<path d="M628.152 8.40577L398.166 653.971H229.986L0 8.40577H162.294L310.712 487.957H317.439L466.279 8.40577H628.152Z" fill="#253550"/>
<path d="M1713.54 666.58C1649.07 666.58 1593.71 652.43 1547.46 624.13C1501.5 595.831 1466.04 556.744 1441.09 506.87C1416.42 456.715 1404.09 398.995 1404.09 333.71C1404.09 268.145 1416.7 210.285 1441.93 160.13C1467.16 109.696 1502.76 70.4685 1548.73 42.4492C1594.98 14.1497 1649.63 0 1712.7 0C1765.12 0 1811.51 9.66667 1851.87 29C1892.51 48.0531 1924.89 75.0918 1948.99 110.116C1973.1 144.86 1986.83 185.488 1990.2 232H1844.72C1838.84 200.899 1824.82 174.981 1802.68 154.246C1780.81 133.232 1751.52 122.725 1714.8 122.725C1683.69 122.725 1656.36 131.13 1632.82 147.942C1609.27 164.473 1590.91 188.29 1577.74 219.391C1564.84 250.493 1558.4 287.758 1558.4 331.188C1558.4 375.179 1564.84 413.005 1577.74 444.667C1590.63 476.048 1608.71 500.285 1631.97 517.377C1655.52 534.188 1683.13 542.594 1714.8 542.594C1737.23 542.594 1757.27 538.391 1774.93 529.985C1792.87 521.299 1807.86 508.831 1819.92 492.58C1831.97 476.328 1840.24 456.575 1844.72 433.319H1990.2C1986.55 478.99 1973.1 519.478 1949.83 554.783C1926.57 589.807 1894.9 617.266 1854.81 637.159C1814.73 656.773 1767.64 666.58 1713.54 666.58Z" fill="#253550"/>
<path d="M2301.02 667C2260.09 667 2223.23 659.715 2190.44 645.145C2157.92 630.295 2132.13 608.44 2113.07 579.58C2094.29 550.72 2084.9 515.135 2084.9 472.826C2084.9 436.401 2091.63 406.28 2105.09 382.464C2118.54 358.647 2136.9 339.594 2160.16 325.304C2183.43 311.015 2209.64 300.227 2238.79 292.942C2268.22 285.377 2298.63 279.913 2330.03 276.551C2367.87 272.628 2398.56 269.126 2422.1 266.043C2445.65 262.681 2462.75 257.638 2473.4 250.913C2484.33 243.908 2489.8 233.121 2489.8 218.551V216.029C2489.8 184.367 2480.41 159.85 2461.63 142.478C2442.85 125.106 2415.8 116.42 2380.48 116.42C2343.2 116.42 2313.63 124.546 2291.77 140.797C2270.18 157.048 2255.61 176.241 2248.04 198.377L2105.93 178.203C2117.14 138.976 2135.64 106.193 2161.43 79.855C2187.21 53.2367 2218.75 33.343 2256.03 20.1739C2293.31 6.72466 2334.51 0 2379.64 0C2410.75 0 2441.73 3.64254 2472.56 10.9275C2503.39 18.2126 2531.56 30.2608 2557.07 47.0724C2582.58 63.6038 2603.04 86.1594 2618.45 114.739C2634.15 143.319 2642 179.043 2642 221.913V653.971H2495.68V565.29H2490.64C2481.39 583.222 2468.35 600.034 2451.54 615.725C2435 631.135 2414.12 643.604 2388.89 653.13C2363.94 662.377 2334.65 667 2301.02 667ZM2340.54 555.203C2371.09 555.203 2397.58 549.179 2420 537.13C2442.43 524.802 2459.66 508.551 2471.72 488.377C2484.05 468.203 2490.22 446.208 2490.22 422.391V346.319C2485.45 350.241 2477.32 353.884 2465.83 357.246C2454.62 360.609 2442.01 363.551 2427.99 366.072C2413.98 368.594 2400.1 370.836 2386.37 372.797C2372.63 374.758 2360.72 376.44 2350.63 377.841C2327.92 380.923 2307.6 385.966 2289.66 392.971C2271.72 399.976 2257.57 409.783 2247.2 422.391C2236.83 434.72 2231.64 450.691 2231.64 470.304C2231.64 498.324 2241.87 519.478 2262.33 533.768C2282.8 548.058 2308.86 555.203 2340.54 555.203Z" fill="#253550"/>
</svg>
